<svg xmlns="http://www.w3.org/2000/svg" viewBox="0 0 620 170" version="1.1" id="svg_null">
  <g id="root" stroke="none" stroke-width="1" fill="none" fill-rule="evenodd">
    <rect id="background" fill="#FFF" x="0" y="0" width="204" height="170"></rect>
    <g id="shape" transform="translate(1.000000, 1.000000)">
      <polygon id="shape.secondary" fill-opacity=".02" fill="#3fbac2" points="85.089 99.343 85.089 79.769 94.916 89.557"/>
      <polygon id="shape.secondary" fill-opacity=".6" fill="#3fbac2" points="116.912 168 85.658 168 85.658 115.861 116.912 84.736"/>
      <polygon id="shape.secondary" fill-opacity=".8" fill="#3fbac2" points="159.455 168 128.201 168 128.201 80.341 159.455 49.217"/>
      <polygon id="shape.secondary" fill="#3fbac2" points="202 168 170.746 168 170.746 31.123 202 0"/>
      <polygon id="shape.secondary" fill-opacity=".4" fill="#3fbac2" points="74.367 127.105 74.367 168 33.301 168"/>
      <polygon id="shape.secondary" fill-opacity=".5" fill="#3fbac2" points="130.037 0 101 28.917 71.963 0"/>
      <polygon id="shape.primary" fill-opacity=".5" fill="#4d606e" points="130.037 0 101 28.917 71.963 0"/>
      <polygon id="shape.primary" fill-opacity=".8" fill="#4d606e" points="42.545 140.47 42.545 43.008 73.799 74.132 73.799 109.346"/>
      <polygon id="shape.primary" fill-opacity=".6" fill="#4d606e" points="85.089 99.343 85.089 79.769 94.916 89.557"/>
      <polygon id="shape.primary" fill="#4d606e" points="21.134 168 0 168 0 0 31.254 31.123 31.254 157.923"/>
      <polygon id="shape.primary" fill-opacity=".6" fill="#4d606e" points="74.367 127.105 74.367 168 33.301 168"/>
    </g>
    <g id="text" transform="translate(210.000000, 50.000000)">
      <rect id="rectangle" x="0" y="-20" width="410" height="110"></rect>
      <text style="cursor: move;" font-weight="bold" xml:space="preserve" text-anchor="start" font-family="'League Gothic', sans-serif" font-size="100" id="text-1" y="60" x="10" stroke-width="0" fill="#4d606e">My</text>
      <text font-weight="bold" xml:space="preserve" text-anchor="start" font-family="'League Gothic', sans-serif" font-size="100" id="text-2" y="60" x="150" stroke-width="0" fill="#3fbac2">Store</text>
    </g>
  </g>
</svg>
